<svg viewBox="0 0 379.9 166.1" xmlns="http://www.w3.org/2000/svg" xmlns:xlink="http://www.w3.org/1999/xlink" id="Livello_3" overflow="hidden"><g><linearGradient x1="72.876" y1="135.936" x2="20.8617" y2="49.3696" gradientUnits="userSpaceOnUse" id="SVGID_1_"><stop offset="0" stop-color="#32BEF0"/><stop offset="0.7323" stop-color="#2A3284"/></linearGradient><linearGradient x1="17.0213" y1="43.1169" x2="36.8782" y2="43.1169" gradientUnits="userSpaceOnUse" id="SVGID_2_"><stop offset="0.00126379" stop-color="#F39325"/><stop offset="1" stop-color="#E83943"/></linearGradient><linearGradient x1="17.0213" y1="29.7315" x2="36.8782" y2="29.7315" gradientUnits="userSpaceOnUse" id="SVGID_3_"><stop offset="0" stop-color="#00AF94"/><stop offset="1" stop-color="#FCDC30"/></linearGradient><path d="M132.1 67.4C142.8 67.4 151.9 71.5 159.2 79.7 165.6 86.7 168.8 95.1 168.8 104.9 168.8 110.8 167.3 116.5 164.2 122.1 161 127.9 156.7 132.5 151.1 135.9 145.3 139.5 138.9 141.3 132 141.3 125 141.3 118.5 139.5 112.5 135.8 106.8 132.3 102.3 127.5 99.2 121.6 96.4 116.2 94.9 110.5 94.9 104.4 94.9 93.9 98.8 84.9 106.6 77.4 113.7 70.9 122.1 67.5 132.1 67.4ZM132 86.8C126.9 86.8 122.6 88.9 119 93.1 116.4 96.2 115 99.9 115 104.4 115 109.6 116.8 113.8 120.3 117.2 123.6 120.3 127.4 121.9 131.9 121.9 137 121.9 141.1 120 144.4 116.2 147.4 112.7 148.8 108.8 148.8 104.6 148.8 99.1 146.7 94.5 142.6 91 139.7 88.3 136.1 86.9 132 86.8Z" fill="#39445D"/><path d="M81.2 79.7C73.8 71.5 64.8 67.4 54.1 67.4 47.7 67.5 42 68.8 36.9 71.5L36.9 51.7 17 51.7 17 104.3 17 104.3C17 104.3 17 104.4 17 104.4 17 110.5 18.4 116.2 21.3 121.6 24.4 127.5 28.8 132.2 34.6 135.8 40.6 139.4 47 141.3 54.1 141.3 61 141.3 67.4 139.5 73.2 135.9 78.7 132.5 83.1 127.9 86.3 122.1 89.4 116.5 90.9 110.8 90.9 104.9 90.8 95 87.6 86.7 81.2 79.7ZM66.5 116.2C63.2 120 59.1 121.9 54 121.9 49.5 121.9 45.6 120.3 42.4 117.2 38.9 113.8 37.1 109.6 37.1 104.4 37.1 99.9 38.4 96.1 41.1 93.1 44.6 88.9 49 86.8 54.1 86.8 58.2 86.9 61.7 88.3 64.9 90.9 69 94.4 71.1 99 71.1 104.5 70.9 108.8 69.4 112.7 66.5 116.2Z" fill="url(#SVGID_1_)"/><rect x="17" y="38.3" width="19.9" height="9.7" fill="url(#SVGID_2_)"/><rect x="17" y="24.9" width="19.9" height="9.7" fill="url(#SVGID_3_)"/><path d="M362.8 104.3 362.8 104.3 362.8 44.5 343 44.5 343 71.5C337.9 68.8 332.3 67.4 326.1 67.4 316.1 67.5 307.6 70.8 300.8 77.4 293 84.9 289.1 93.9 289.1 104.4 289.1 110.5 290.5 116.2 293.4 121.6 296.5 127.5 300.9 132.2 306.7 135.8 312.7 139.4 319.1 141.3 326.2 141.3 333.1 141.3 339.5 139.5 345.3 135.9 350.8 132.5 355.2 127.9 358.4 122.1 361.5 116.5 363 110.8 363 104.9 362.8 104.7 362.8 104.5 362.8 104.3ZM338.6 116.2C335.3 120 331.2 121.9 326.1 121.9 321.6 121.9 317.7 120.3 314.5 117.2 311 113.8 309.2 109.6 309.2 104.4 309.2 99.9 310.5 96.1 313.2 93.1 316.7 88.9 321.1 86.8 326.2 86.8 330.3 86.9 333.8 88.3 337 90.9 341.1 94.4 343.2 99 343.2 104.5 343 108.8 341.5 112.7 338.6 116.2Z" fill="#39445D"/><path d="M273 141.2 253.1 141.2 253.1 101.4C253.1 96.2 253.3 92.5 253.6 90.2 253.9 87.9 254.6 85.6 255.7 83.4 260.7 72.8 269.9 67.5 283.6 67.5 284.3 67.5 285.3 67.5 286.8 67.6L286.8 85.9 284.4 86C280 86.1 277 86.9 275.5 88.5 273.9 90.1 273.1 93 273.1 97.1L273.1 141.2Z" fill="#39445D"/><path d="M210.2 67.4C220.9 67.4 230 71.5 237.3 79.7 243.7 86.7 246.9 95.1 246.9 104.9 246.9 110.8 245.4 116.5 242.3 122.1 239.1 127.9 234.8 132.5 229.2 135.9 223.4 139.5 217 141.3 210.1 141.3 203.1 141.3 196.6 139.5 190.6 135.8 184.9 132.3 180.4 127.5 177.3 121.6 174.5 116.2 173 110.5 173 104.4 173 93.9 176.9 84.9 184.7 77.4 191.7 70.9 200.2 67.5 210.2 67.4ZM210.1 86.8C205 86.8 200.7 88.9 197.1 93.1 194.5 96.2 193.1 99.9 193.1 104.4 193.1 109.6 194.9 113.8 198.4 117.2 201.7 120.3 205.5 121.9 210 121.9 215.1 121.9 219.2 120 222.5 116.2 225.5 112.7 226.9 108.8 226.9 104.6 226.9 99.1 224.8 94.5 220.7 91 217.8 88.3 214.2 86.9 210.1 86.8Z" fill="#39445D"/><rect x="228.8" y="104.3" width="18.1" height="36.8" fill="#39445D"/></g></svg>